<svg version="1.2" xmlns="http://www.w3.org/2000/svg" viewBox="0 0 948 240" width="948" height="240"><style></style><path  d="m135.4 55.5v18q-3.5 2.6-6.8 5.5-3.4 2.9-6.5 6-3.1 3.1-5.8 6.2-2.8 3-5 5.9-2.8 3.4-5.3 6.7-2.5 3.3-4.8 6.6 3.1 4.3 6.1 8.3 3.1 4 6.2 7.9 2.5 3.3 5.3 6.8 2.9 3.5 5.7 6.8 2.9 3.3 5.6 6.2 2.8 2.8 5.2 5l0.1 16.6h-58l-20.8-46.9v46.9h-56.2v-31.8l9.4-1.8v-45.3l-9.4-1.8v-31.8h56.2v45.1l20.8-45.1zm120.5 112.5h-39.2l-3.6-17.4h-28.8l-3.7 17.4h-39.2v-34l8.5-1.7 20.3-67.4h56.9l20.4 67.4 8.4 1.7zm-57.3-81l-9.8 40.5h19.8zm157.2 48.6q0 6.8-2 12.1-1.9 5.2-5.3 9-3.3 3.8-7.9 6.4-4.5 2.6-9.8 4.2-5.3 1.5-11 1.8-5.8 0.2-11.5 0.2-7.9 0-14.3-0.3-6.3-0.4-11.4-1.6-5-1.3-8.8-2.8-3.9-1.5-6.8-3v-25.4h20.7q3.1 4.9 7.1 7.1 3.9 2.3 8.1 2.3 1.3 0 2.8-0.2 1.5-0.2 2.8-1.4 1.4-1.2 2.2-3.6 1-2.5 1-7-5.9-0.5-11.8-1.4-5.8-1-11.1-2.7-5.3-1.7-9.8-4.3-4.6-2.6-8-6.3-3.3-3.7-5.2-8.7-1.9-5-1.9-11.6 0-7.4 1.9-13 1.9-5.6 5.2-9.7 3.3-4 7.8-6.6 4.6-2.7 9.8-4.2 5.2-1.5 10.8-2.1 5.6-0.7 11.3-0.7 8 0 14.3 0.8 6.3 0.8 11.3 2.1 5.1 1.2 8.9 2.7 3.8 1.5 6.9 2.9v25.6h-22.2q-2.8-5.2-6.4-7.6-3.6-2.5-7.3-2.5-1.3 0-2.9 0.5-1.6 0.3-3 1.7-1.4 1.4-2.3 4.1-1 2.7-1 7.4 12.1 0.4 21.2 2.5 9.1 2.1 15.3 6.4 6.1 4.2 9.2 10.8 3.1 6.6 3.1 16.1zm11.8-41.7v-29h61.6v29l-8.7 1.7v12.1h35.2v-12.1l-8.8-1.7v-29.4h61.7v29.4l-8.8 1.7v41.5l8.8 1.7v29.2h-61.7v-29.2l8.8-1.7v-12.2h-35.2v12.2l8.7 1.7v29.2h-61.6v-29.2l8.8-1.7v-41.5zm212.8 75.4q-12.9 0-24.2-2.7-11.2-2.8-19.5-9.4-8.3-6.8-13.1-17.2-4.8-10.4-4.8-25 0-14.2 4.8-24.3 4.8-10.1 13.2-16.4 8.3-6.3 19.5-9.3 11.2-2.9 24.1-2.9 12.8 0 24 2.9 11.3 3 19.7 9.3 8.4 6.3 13.2 16.4 4.9 10.1 4.9 24.3 0 9.7-2.2 17.6-2.2 7.9-6.3 14-3.9 6.1-9.6 10.6-5.5 4.4-12.4 7.3-6.9 2.8-14.8 3.9-7.9 0.9-16.5 0.9zm0-76q-4.3 0-7.3 1.1-2.9 1.1-4.9 2.9-1.9 1.7-3 4-1.1 2.2-1.6 4.7-0.5 2.3-0.6 4.7-0.1 2.2-0.1 4 0 1.7 0.1 4 0.1 2.3 0.5 4.8 0.4 2.5 1.5 5 1 2.5 2.9 4.5 2 2 5 3.2 3 1.2 7.5 1.2 4.4 0 7.4-1.2 3.1-1.2 5-3.1 2-1.9 3.1-4.4 1.1-2.4 1.5-4.8 0.5-2.5 0.6-4.8 0.1-2.4 0.1-4.1 0-1.7-0.1-4-0.1-2.3-0.6-4.7-0.4-2.5-1.5-4.7-1.1-2.4-3.1-4.2-1.9-1.8-5-2.9-3-1.2-7.4-1.2zm132.1 76q-12.9 0-24.2-2.7-11.2-2.8-19.6-9.4-8.2-6.8-13.1-17.2-4.7-10.4-4.7-25 0-14.2 4.7-24.3 4.9-10.1 13.2-16.4 8.4-6.3 19.6-9.3 11.2-2.9 24.1-2.9 12.8 0 24 2.9 11.3 3 19.6 9.3 8.4 6.3 13.3 16.4 4.8 10.1 4.8 24.3 0 9.7-2.2 17.6-2.2 7.9-6.2 14-4 6.1-9.6 10.6-5.6 4.4-12.5 7.3-6.8 2.8-14.8 3.9-7.9 0.9-16.4 0.9zm0-76q-4.4 0-7.4 1.1-2.9 1.1-4.9 2.9-1.9 1.7-3 4-1.1 2.2-1.6 4.7-0.4 2.3-0.6 4.7 0 2.2 0 4 0 1.7 0 4 0.1 2.3 0.5 4.8 0.5 2.5 1.5 5 1 2.5 2.9 4.5 2 2 5 3.2 3.1 1.2 7.6 1.2 4.4 0 7.4-1.2 3-1.2 4.9-3.1 2-1.9 3.1-4.4 1.1-2.4 1.6-4.8 0.5-2.5 0.5-4.8 0.2-2.4 0.2-4.1 0-1.7-0.2-4 0-2.3-0.5-4.7-0.5-2.5-1.6-4.7-1.1-2.4-3.1-4.2-1.9-1.8-4.9-2.9-3-1.2-7.4-1.2zm96.9 43.8v-45q-3.8 0-6.8 1-2.9 1.1-4.9 2.6-2 1.6-3 3.4-1 1.7-1 3.3h-12.2v-37.5h99.9v37.5h-12.3q0-1.6-1-3.3-1-1.8-3-3.4-2-1.5-4.9-2.6-2.9-1-6.7-1v45l8.7 1.7v29.2h-61.6v-29.2zm91.1-6.6l-9.5-45.8v-29.2h56.4v29.2l-9.4 45.8zm-4.7 37.5v-28.1h46.9v28.1z"/><path  d="m32.9 23.6q0-3.1 1.1-5.2 1-2.1 2.8-3.3 1.8-1.3 4.1-1.9 2.4-0.6 5-0.6 2.1 0 4.1 0.7 2 0.7 3.5 1.9 1.6 1.2 2.5 3 1 1.7 1 4 0 1.9-0.8 3.2-0.7 1.2-2 2-1.2 0.6-2.8 0.9-1.5 0.3-3.1 0.3-1.6 0-3.3-0.1-1.6-0.2-2.9-0.7-1.4-0.5-2.3-1.6-0.9-1.1-0.9-3 1.1 0 2 0.4 1 0.4 2 0.9 0.9 0.4 1.9 0.8 0.9 0.5 2 0.5 0.8 0 2.1-0.2 1.3-0.1 2.4-0.5 1.2-0.5 2-1.2 0.8-0.7 0.8-1.9 0-1.6-0.7-2.8-0.7-1.3-1.9-2-1.2-0.9-2.6-1.3-1.5-0.5-3-0.5-0.2 0-0.9 0.1-0.8 0.1-1.8 0.4-0.9 0.2-2 0.5-1.1 0.3-2 0.8-0.9 0.4-1.5 1-0.6 0.6-0.6 1.4v0.5q0.1 0.6 0.1 1.5 0.1 0.9 0.2 1.8 0 0.9 0.1 1.6 0.1 0.7 0.1 0.8 0.1 0.7 0.4 2.4 0.2 1.6 0.5 3.7 0.3 2 0.6 4.2 0.4 2.2 0.8 4.3 0.3 2 0.6 3.6 0.3 1.6 0.4 2.4 0 0.1 0 0.2 0 0 0 0.1 0 0 0 0v0.1 0.1q-0.1 0.1-0.4 0.5-0.4 0.3-0.5 0.4h-0.3q-0.5 0-1-0.9-0.6-0.9-1.2-2.4-0.5-1.6-1.1-3.6-0.5-2-1.1-4.2-0.5-2.1-0.9-4.2-0.5-2.1-0.8-3.9-0.4-1.8-0.6-3.1-0.1-1.4-0.1-1.9zm27.1 6q-0.5-3.5-0.6-6.9-0.1-3.4-0.1-6.9 0-3.5 0.1-6.9 0.1-3.4 0-6.8 0-0.4 0.3-0.6 0.3-0.1 0.7-0.1 0.4 0 0.8 0.3 0.3 0.3 0.5 0.8 0.3 0.4 0.4 0.9 0.1 0.5 0.1 0.8 0.3 7 0.4 11.6 0.1 4.7 0 7.6-0.1 2.8-0.3 4.2-0.2 1.3-0.6 1.8-0.3 0.5-0.8 0.4-0.4-0.1-0.9-0.2zm4.9-12.7q0-2.5 0.8-4.8 0.7-2.4 2.2-4.1 1.4-1.8 3.5-2.8 2.1-1.1 4.8-1.1 1.6 0.2 2.8 0.9 1.2 0.7 1.9 1.7 0.8 1 1.2 2.3 0.3 1.3 0.3 2.7 0 1.8-1.1 3.2-1 1.4-2.6 2.4-1.5 0.9-3.3 1.5-1.8 0.5-3.4 0.5-0.6 0-1.2 0-0.6 0-1.1-0.2-0.5-0.2-0.8-0.6-0.3-0.4-0.3-1.2 0-0.2 0.1-0.4 0.1-0.2 0.4-0.2 0.4-0.1 1-0.1 0.7 0.1 1.9 0.3 0.7 0 2-0.4 1.3-0.5 2.6-1.2 1.4-0.8 2.3-1.7 1-1 1-1.9 0-1-0.3-1.9-0.3-1-1-1.7-0.6-0.8-1.5-1.2-0.8-0.4-1.9-0.3-1.7 0.1-3.1 0.9-1.4 0.8-2.3 2-1 1.3-1.6 2.8-0.5 1.5-0.5 3.1 0 1.3 0.1 2.6 0 1.3 0.3 2.5 0.3 1.2 1 2.3 0.8 1.1 2.1 2 1.3 0.9 3.4 1.4 2 0.6 5.1 0.7l8.7-0.6q-0.8 1.1-2 1.8-1.2 0.7-2.5 1.1-1.4 0.4-2.7 0.6-1.3 0.2-2.5 0.2-2.8 0-5.3-0.9-2.5-1-4.4-2.6-1.9-1.7-3-4.1-1.1-2.5-1.1-5.5zm25.8 4.8q0.1-0.8 0.5-1.9 0.4-1 1.4-2.1 0.9-1 2.3-1.8 1.4-0.8 3.3-1.1 2-0.4 4.4-0.1 2.5 0.3 5.5 1.5 0-0.1 0-0.5v-0.4q0-1.3-0.7-2.6-0.8-1.4-2-2.4-1.1-1.1-2.4-1.7-1.3-0.7-2.5-0.7-0.5 0-0.9 0.2-0.4 0.1-0.7 0.4-0.3 0.2-0.7 0.4-0.3 0.1-0.7 0.1-0.1 0-0.1 0-0.1-0.1-0.1-0.1-0.1-0.1-0.3-0.3-0.1-0.1-0.1-0.2 0-0.9 0.2-1.5 0.4-0.6 0.9-1 0.6-0.4 1.3-0.6 0.7-0.3 1.5-0.3 2 0.2 3.7 1.3 1.8 0.9 3.3 2.5 1.5 1.5 2.6 3.5 1.2 1.9 1.9 4.1 0.8 2.1 1 4.2 0.3 2.3 0.1 4.2-0.1 0-0.3 0-0.3 0-0.6 0-0.3-0.1-0.5-0.1l-0.2-0.1q-1-2.3-2.3-3.7-1.3-1.4-2.5-2.2-1.3-0.8-2.3-1.1-1.1-0.3-1.8-0.5-0.7 0-1.7 0.1-1 0.1-2.1 0.3-1.1 0.3-2.2 0.7-1.1 0.4-1.9 1-0.9 0.6-1.4 1.4-0.5 0.8-0.5 1.9 0 1.2 0.9 2 1 0.8 2.3 1.3 1.3 0.5 2.7 0.7 1.3 0.2 2.2 0.2 1.3 0 2.6-0.2 1.4-0.1 2.6-0.3 1.3-0.2 2.6-0.4 1.3-0.1 2.6-0.1 0.1 0 0.3 0 0.2 0 0.5 0.1 0.3 0 0.5 0 0.2 0 0.3 0 0.4 0.1 0.5 0.4 0 0.3 0 0.6 0 0.3-0.6 0.6-0.6 0.4-1.6 0.7-1 0.3-2.2 0.7-1.2 0.4-2.3 0.6-1.1 0.3-2 0.5-1 0.1-1.4 0.1-2 0-4.3-0.3-2.3-0.4-4.2-1.3-1.9-0.9-3.2-2.5-1.2-1.6-1.2-4.2zm25.2 2.4q0.4-0.3 0.7-0.4 0.3 0 0.7 0 0.5 0 0.9 0.2 0.4 0.2 0.8 0.5 0.4 0.3 0.8 0.6 0.3 0.3 0.8 0.5 1.3 0.5 2 0.9 0.8 0.3 1.4 0.5 0.6 0.2 1.5 0.3 0.8 0 2.1 0 1 0 2.5 0.1 1.5 0 2.8-0.3 1.3-0.3 2.2-1 1-0.7 1-2.2 0-1.4-0.8-2.1-0.8-0.9-2.2-1.3-1.3-0.5-3-0.6-1.7-0.2-3.6-0.4-1.8-0.2-3.5-0.5-1.7-0.4-3.1-1.2-1.4-0.8-2.2-2.2-0.8-1.3-0.9-3.5 0.3-1.5 1.5-2.6 1.3-1 3-1.6 1.8-0.6 3.7-0.6 2 0 3.6 0.5 1.7 0.5 2.7 1.6 1.2 1.2 1.2 2.8 0.1 1-0.1 1.6-0.3 0.7-0.7 1-0.4 0.3-0.9 0.3-0.4 0-0.6-0.3-0.3-0.4-0.3-1 0.1-0.6 0.6-1.5-0.2-1-1.1-1.5-1-0.5-2.2-0.7-1.2-0.3-2.6-0.1-1.4 0.1-2.5 0.5-1.2 0.4-1.9 1-0.7 0.6-0.6 1.5 0 1.4 0.8 2.3 0.9 0.7 2.3 1.2 1.4 0.4 3.1 0.6 1.8 0.2 3.7 0.4 1.9 0.1 3.6 0.5 1.8 0.3 3.2 1 1.4 0.7 2.3 2 0.8 1.2 0.8 3.2 0 1.6-0.8 2.7-0.8 1.1-2 1.8-1.2 0.7-2.6 1.1-1.4 0.3-2.7 0.3-1.2 0-2.7 0-1.4 0-2.9-0.2-1.5-0.1-3-0.4-1.5-0.4-2.8-1-1.3-0.7-2.3-1.7-1.1-1-1.7-2.6zm25.8-7.2q0-2.5 0.8-4.8 0.7-2.4 2.2-4.1 1.4-1.8 3.5-2.8 2.1-1.1 4.8-1.1 1.6 0.2 2.8 0.9 1.2 0.7 1.9 1.7 0.8 1 1.2 2.3 0.3 1.3 0.3 2.7 0 1.8-1.1 3.2-1 1.4-2.6 2.4-1.5 0.9-3.3 1.5-1.8 0.5-3.4 0.5-0.6 0-1.2 0-0.6 0-1.1-0.2-0.5-0.2-0.8-0.6-0.3-0.4-0.3-1.2 0-0.2 0.1-0.4 0.1-0.2 0.4-0.2 0.4-0.1 1.1-0.1 0.6 0.1 1.8 0.3 0.7 0 2-0.4 1.3-0.5 2.6-1.2 1.4-0.8 2.3-1.7 1-1 1-1.9 0-1-0.3-1.9-0.3-1-1-1.7-0.6-0.8-1.5-1.2-0.8-0.4-1.9-0.3-1.7 0.1-3.1 0.9-1.4 0.8-2.3 2-1 1.3-1.6 2.8-0.5 1.5-0.5 3.1 0 1.3 0.1 2.6 0 1.3 0.3 2.5 0.3 1.2 1 2.3 0.8 1.1 2.1 2 1.3 0.9 3.4 1.4 2 0.6 5.1 0.7l8.7-0.6q-0.8 1.1-2 1.8-1.2 0.7-2.5 1.1-1.3 0.4-2.7 0.6-1.3 0.2-2.5 0.2-2.8 0-5.3-0.9-2.5-1-4.4-2.6-1.9-1.7-3-4.1-1.1-2.5-1.1-5.5z"/><path  d="m800.6 219.3q-0.3 0.9-0.6 1.9-0.3 0.9-0.5 1.8-0.2 0.9-0.3 1.8-0.1 0.8 0 1.7 0.5 0.4 1 0.8 0.5 0.4 1 0.7 0.2 0.2 0.5 0.4 0.3 0.1 0.6 0.2 0.2 0.1 0.4 0.2 0.1 0.1 0.3 0.2 0 0 0.2 0.1 0.1 0.1 0.2 0.1 0 0.1 0.2 0.2 0.1 0 0.3 0.1 0.3 0.2 0.4 0.5 0.2 0.3 0.3 0.7l1.8 2.8q0.5 0.7 0.1 1.8-0.4 0.9-1.1 1.8-0.6 0.8-1.5 1.4-0.8 0.6-1.8 1-0.9 0.4-1.8 0.5-0.3 0.1-0.6 0.1-0.2 0-0.5 0-1.4 0-2.5-0.5-1.1-0.4-2.1-1.2l0.1 0.1q-0.9-0.6-1.5-1.3-0.6-0.7-1.2-1.6l-1.1-1.8q-1.3-1.4-2.1-3.2-0.8-1.8-1.2-3.7-0.4-2.5-0.1-5.2 0.2-2.7 1.3-5.5v-0.3q1.1-3.1 2.7-6 1.7-2.9 3.7-5.6 2.3-2.9 4.9-5.5 2.8-2.7 6.1-4.7 1.4-0.9 2.9-1.5 1.5-0.7 3-0.7 0.1 0 0.3 0 0.2 0 0.4 0.1 1.1 0.1 1.8 0.8 0.7 0.6 1 1.5l1.6 2.6q0.6 0.7 0.6 1.8 0 1.1-0.4 2.2l-0.1 0.2q-0.5 1-1.3 1.5-0.9 0.4-1.7 0.8l-0.4 0.1q-2.3 1-4.5 2.6-2.1 1.7-3.8 3.7-1.8 2.2-2.9 4.7-1.2 2.4-2.1 4.8zm2.8 12.6q0.1-0.4 0-0.8 0-0.4-0.4-0.6-0.7-0.3-1.4-0.7-0.6-0.4-1.3-0.8-1.4-1-2.5-2.2-1.2-1.3-1.6-2.9-0.2-0.9-0.2-1.9 0.1-1 0.2-2 0.3-1 0.5-2 0.4-1.1 0.7-2.1 1-2.5 2.2-5 1.3-2.5 3.1-4.9 1.8-2.2 4.1-4 2.3-1.7 4.9-2.7 0.3-0.2 0.7-0.3 0.4-0.2 0.7-0.4 0.4-0.2 0.7-0.4 0.2-0.3 0.4-0.6 0.3-0.8 0.4-1.6 0-0.8-0.2-1.4-0.3-0.6-0.8-1-0.5-0.4-1.4-0.5-1.3-0.1-2.8 0.4-1.4 0.6-2.8 1.4-3.1 1.9-5.7 4.5-2.6 2.5-4.7 5.3-2.1 2.7-3.7 5.7-1.6 2.9-2.6 5.8-1 2.6-1.3 5.2-0.2 2.6 0.2 4.9 0.5 2.4 1.6 4.5 1 2 2.9 3.4 1 0.8 2.2 1.3 1.3 0.4 2.8 0.2 0.8-0.1 1.6-0.4 0.7-0.3 1.4-0.8 0.7-0.5 1.2-1.2 0.6-0.6 0.9-1.4zm34.6-30.1q0 1.2 0 2.3-0.1 1.2-0.1 2.4 0.3-0.4 0.5-0.8 0.2-0.3 0.5-0.7 0.3-0.4 0.6-0.9 0.3-0.4 0.7-0.9 0.3-0.4 0.7-0.9 0.5-0.6 0.9-1.1 0.7-0.9 1.5-1.9 0.7-1 1.6-1.8 0.9-0.9 1.9-1.6 1.1-0.7 2.4-1 1.3 0.2 2.2 0.9 0.8 0.8 1.2 1.8l1.7 2.6q0.5 0.8 0.7 1.8 0.2 1 0.2 2.1 0.1 1.8-0.3 3.7-0.3 2-0.9 3.9-0.1 0.3-0.2 0.6-0.1 0.3-0.2 0.6-0.1 0.3-0.3 0.6-0.1 0.2-0.2 0.5-0.1 0.3-0.2 0.7-0.2 0.3-0.3 0.7-0.3 0.6-0.5 1.2-0.2 0.6-0.5 1.2-0.1 0.3-0.2 0.6-0.2 0.3-0.3 0.6-0.1 0.5-0.3 1-0.1 0.5-0.2 0.9-0.1 0.6-0.3 1.1-0.1 0.5-0.2 1-0.4 1.4-0.8 2.7-0.3 1.3-0.8 2.7-0.2 0.6-0.5 1.3-0.2 0.6-0.5 1.1-0.2 0.5-0.6 1-0.3 0.6-0.8 1.2 0 0.1-0.1 0.1 0 0-0.2 0.4-0.4 0.4-0.8 0.8-0.4 0.4-0.8 0.8-0.5 0.4-1 0.6-0.5 0.3-1 0.4-0.3 0-0.4 0-0.1 0-0.3 0-0.9 0-1.6-0.4-0.8-0.4-1.2-1l-1.6-2.6q-0.6-0.5-0.9-1.2-0.3-0.8-0.2-1.7 0-0.1 0-0.2 0-0.2 0-0.3-1.2 1.4-2.4 2.7-1.3 1.3-2.9 2.5-1.1 0-1.8-0.4-0.7-0.4-1-1l-1.8-2.6q0 0-0.1-0.1 0 0.3-0.1 0.6-0.1 0.2-0.2 0.5l-0.3 1q-0.3 0.6-0.6 1.3-0.3 0.6-0.8 1.3-0.7 0.9-1.7 1.2-0.8 0.4-1.7 0.4-0.3 0-0.4 0-0.1 0-0.4 0-1.5-0.3-2.2-1.4l-1.7-2.6q-0.6-0.5-0.9-1.3-0.3-0.8-0.3-1.7 0-2.2 0.6-4.5 0.5-2.4 1.3-4.8 0.2-0.7 0.5-1.5 0.3-0.8 0.6-1.6 1-2.9 2.3-5.8 1.2-2.9 2.8-5.7 0.7-1.5 1.5-2.9 0.8-1.4 1.8-2.8 0.5-0.8 1.2-1.5 0.7-0.8 1.5-1.5 0.8-0.7 1.7-1.2 0.9-0.4 1.9-0.6h0.3q0 0 0.1 0 0.1 0 0.2 0 1.2 0 1.9 0.7 0.6 0.6 0.9 1.6l1.6 2.5q0.6 0.9 0.6 2.3zm6.4 25.5q0.9-1.9 1.5-3.8 0.5-1.9 1-3.8 0.3-1 0.5-2 0.3-1.1 0.6-2.1 0.3-0.9 0.7-1.8 0.4-0.9 0.8-1.8 0.3-0.9 0.7-1.8 0.4-1 0.6-1.9 0.6-1.8 0.9-3.7 0.4-1.8 0.3-3.6 0-0.8-0.1-1.6-0.2-0.9-0.5-1.6-0.4-0.7-1-1.2-0.6-0.4-1.5-0.6-1.3 0.4-2.3 1.3-1.1 0.8-2 1.9-0.9 1.1-1.8 2.2-0.8 1.2-1.7 2.1-1.8 2.7-3.6 5.4-1.9 2.6-3.8 5.3 0.6-4 0.9-7.8 0.2-3.8 0.2-7.6 0-0.6-0.1-1.2-0.2-0.5-0.5-1-0.3-0.4-0.9-0.6-0.5-0.2-1.2-0.1-0.7 0.1-1.4 0.5-0.8 0.4-1.4 0.9-0.7 0.6-1.2 1.2-0.6 0.7-1.1 1.3-0.9 1.4-1.7 2.8-0.8 1.3-1.5 2.8-1.9 3.6-3.4 7.2-1.5 3.6-2.7 7.2-0.7 2.2-1.2 4.5-0.6 2.3-0.5 4.4 0 1.1 0.5 2 0.5 0.9 1.7 1 0.3 0 0.7 0 0.4 0 0.8-0.1 0.4-0.1 0.8-0.3 0.3-0.2 0.7-0.6 0.5-0.8 0.8-1.6 0.3-0.8 0.6-1.6 0.3-0.9 0.5-1.8 0.2-0.9 0.4-1.7 0.2-1 0.4-1.9 0.2-0.9 0.6-1.8 0.5-1.7 1.1-3.3 0.6-1.7 1.4-3.3-0.1 1.6-0.3 3.2-0.2 1.5-0.3 3.2-0.2 1.6-0.3 3.1-0.1 1.6 0 3.1 0 0.6 0.1 1.2 0.2 0.6 0.4 1 0.3 0.5 0.8 0.8 0.5 0.3 1.1 0.3 2.2-1.8 4-3.9 1.8-2.1 3.4-4.4 1.6-2.3 3.1-4.6 1.5-2.4 3.1-4.6-0.3 1.8-0.8 3.5-0.4 1.7-1 3.4-0.5 1.7-1.1 3.4-0.6 1.6-1.1 3.3-0.3 0.8-0.6 1.6-0.3 0.8-0.4 1.6 0 0.6 0.2 1.2 0.2 0.6 0.6 1 0.4 0.4 1 0.6 0.6 0.2 1.3 0 0.8-0.1 1.4-0.6 0.6-0.6 1.2-1.2 0.4-0.7 0.9-1.3 0.4-0.6 0.7-1.3zm27.2-8.5q-0.8 0.4-1.3 1.1-0.6 0.7-1.1 1.4 0.4-0.1 0.8-0.3 0.4-0.2 0.8-0.3 0.1-0.1 0.2-0.2 0.2-0.1 0.5-0.2l0.6-0.3q2-0.9 4.1-1.6 2-0.7 4-0.8h0.3q1.4 0 2.5 0.7 1 0.6 1.4 1.8l1.6 2.5v0.1q0.2 0.3 0.3 0.6 0.1 0.3 0.2 0.7l-0.1 0.7-0.2 0.5q-0.9 1.1-2 2-1.1 0.9-2.3 1.6-1.1 0.7-2.4 1.3-1.2 0.6-2.4 1.1-0.7 0.4-1.5 0.7-0.8 0.4-1.5 0.8-0.4 0.1-0.8 0.3-0.4 0.2-0.9 0.3v0.1q-1.3 0.6-2.7 1.1-1.4 0.6-2.8 1-1.3 0.5-2.7 0.7-1.4 0.3-2.8 0.3-1-0.1-1.8-0.5-0.8-0.4-1.3-1.1l-0.2-0.3v0.1l-1.5-2.3q-0.2-0.2-0.4-0.5-0.2-0.2-0.4-0.4-0.4-0.8-0.5-1.6 0-0.9 0-1.7v-0.3-0.4q0.1-1.9 0.5-3.8 0.4-2 1-3.9l0.3-0.6q1.2-3.3 2.6-6.4 1.5-3.2 3.1-6.3 0.8-1.7 1.7-3.3 0.9-1.7 1.7-3.4 1-1.1 2.1-1.8 1.1-0.8 2.2-1.3 1.2-0.5 2.3-0.8 1.2-0.3 2.3-0.5 0.1 0 0.3-0.1 0.1-0.1 0.2-0.1 0.1 0 0.2-0.1 1.8-0.3 3.6-0.5 1.7-0.2 3.6-0.2 0.6 0 1.2 0.1 0.5 0 1.1 0 1.2 0.1 2.1 0.8 0.8 0.7 1.1 1.8l1.6 2.4q0.9 1.3 0.3 3.1l-0.1 0.3q-0.3 0.6-0.7 1.2-0.5 0.6-1 1-0.6 0.5-1.3 0.8-0.6 0.3-1.3 0.4 0.2 0.2 0.2 0.4 0.1 0.2 0.2 0.5l1.6 2.4q0.3 0.6 0.4 1.3 0 0.6-0.2 1.4l-0.2 0.6q-0.3 0.8-0.9 1.5-0.6 0.7-1.4 1.3-0.7 0.5-1.6 0.8-0.8 0.4-1.7 0.5-1.4 0.2-2.8 0.3-1.5 0.2-2.9 0.3-0.1 0-0.1 0-0.1 0.1-0.1 0.1-1.3 0.1-2.6 0.3-1.2 0.2-2.3 0.8zm11.6 2.7l0.1-0.1v-0.4q-0.1-1.2-1.1-1.7-1-0.6-2.3-0.6-1.9 0.1-3.9 0.8-1.9 0.7-3.9 1.6-1.9 0.8-3.7 1.6-1.9 0.9-3.9 1.5 0.1-1.2 0.4-2.4 0.3-1.3 0.7-2.5 0.2-0.7 0.5-1.3 0.4-0.7 0.8-1.3 0.5-0.6 1-1.2 0.6-0.5 1.3-0.9 1.4-0.7 2.8-1 1.5-0.2 2.9-0.4 1.4-0.1 2.8-0.2 1.4-0.2 2.8-0.4 0.7-0.1 1.4-0.3 0.7-0.3 1.3-0.8 0.6-0.4 1-1 0.5-0.5 0.7-1.2 0.4-0.8 0.3-1.4 0-0.7-0.4-1.1-0.4-0.5-1-0.7-0.7-0.3-1.4-0.3-1.4 0-2.9 0.2-1.4 0.2-2.9 0.5-1.5 0.3-3 0.6-1.5 0.3-2.9 0.4v-0.3q0.2-0.4 0.5-0.9 0.2-0.4 0.4-0.9 0.6-1.1 1.6-1.7 1.1-0.7 2.2-1.1 1.1-0.3 2.2-0.5 1.1-0.1 2.1-0.1 1.1 0 2.2 0 1.1 0 2.2-0.1 0.5-0.1 1-0.3 0.6-0.2 1-0.6 0.4-0.4 0.7-0.8 0.3-0.4 0.5-0.9 0.2-0.8 0.1-1.4-0.1-0.7-0.4-1.2-0.4-0.4-0.9-0.7-0.6-0.3-1.3-0.4-2.2-0.1-4.5 0-2.3 0.2-4.7 0.7-1 0.2-2.1 0.5-1.1 0.3-2.2 0.7-1.1 0.4-2.2 1-1 0.6-1.8 1.6-0.9 1.6-1.8 3.2-0.9 1.6-1.7 3.3-1.6 3.3-3.1 6.5-1.5 3.3-2.7 6.6-0.6 1.9-1 3.8-0.4 1.9-0.5 3.7 0 0.9 0 1.8 0 0.9 0.4 1.6 0.4 0.8 1.1 1.1 0.8 0.3 1.7 0.4 1.4 0 2.9-0.3 1.6-0.4 3.1-0.9 1.5-0.6 3.1-1.2 1.5-0.7 3.1-1.3 1.4-0.8 2.9-1.4 1.6-0.7 3-1.5 1.6-0.8 2.9-1.7 1.4-1 2.5-2.3zm18.3-20l-1.6-2.5q-0.6-0.4-0.9-1-0.2-0.5 0.1-1.5 0.4-1.1 1.2-1.9 0.7-0.9 1.6-1.4 0.9-0.6 1.9-1 1-0.3 1.9-0.4v-0.1q0.8-0.1 1.8-0.1 1.5 0 2.7 0.4 1.2 0.5 2.2 1.3 0.9 0.7 1.6 1.8 0.7 1 1.1 2.1l1.1 1.6q0.4 0.8 0.8 1.6 0.4 0.9 0.6 1.8 0.9 3.1 0.6 6.6-0.2 3.5-1.5 7.1-0.7 1.9-1.6 3.7-1 1.8-2.2 3.6-1.1 1.8-2.5 3.5-1.3 1.7-2.7 3.4-0.9 1-1.8 2-1 1.1-2.1 2.1-1.1 1-2.2 1.9-1.2 0.9-2.4 1.6-1.2 0.7-2.5 1.1-1.2 0.4-2.6 0.4h-0.6q-0.9-0.1-1.6-0.6-0.7-0.4-1.2-1.1l-1.6-2.5q-0.7-0.6-1-1.6-0.4-1 0-2.2l0.1-0.3q0.2-0.6 0.7-1.2 0.5-0.7 1.2-1.1l0.3-0.1q0.1 0 0.1 0 0 0 0.1 0v-0.1q0.1 0 0.3-0.1 0.2-0.1 0.5-0.2 0.2-0.1 0.6-0.2 1.2-0.4 2.4-1.1 1.1-0.7 2.2-1.6 1-0.8 1.9-1.8 0.9-1.1 1.8-2.1 1.8-2.4 3.2-5 1.3-2.5 2.4-5.1 0.6-1.7 0.7-3.4 0.1-1.7-0.4-3.1-1.4-1.3-3.4-2.1 0 0-0.1-0.1-0.4-0.2-0.7-0.4-0.3-0.2-0.5-0.6zm12.1 11.1q1.2-3.5 1.4-6.9 0.2-3.4-0.6-6.3-0.3-1.5-1-2.8-0.7-1.3-1.8-2.3-1.1-0.9-2.6-1.3-1.5-0.5-3.4-0.2-0.7 0.1-1.5 0.4-0.9 0.3-1.6 0.7-0.7 0.5-1.3 1.1-0.6 0.6-0.9 1.4-0.2 0.4-0.1 0.7 0.1 0.3 0.3 0.6 0.2 0.2 0.5 0.4 0.3 0.1 0.6 0.3 1.7 0.7 3.1 1.8 1.4 1.1 2.2 2.7 1 1.7 0.9 3.8 0 2.2-0.8 4.5-1 2.7-2.5 5.3-1.4 2.7-3.4 5.2-0.9 1.2-1.9 2.3-1 1.1-2.1 2-1.1 1-2.4 1.8-1.3 0.8-2.7 1.2-0.4 0.1-0.9 0.3-0.4 0.2-0.8 0.4-0.4 0.2-0.7 0.6-0.3 0.4-0.4 0.8-0.2 0.7-0.1 1.4 0.2 0.6 0.5 1.1 0.4 0.5 1 0.8 0.6 0.3 1.3 0.4 1.8 0.2 3.5-0.6 1.8-0.8 3.5-2.1 1.7-1.3 3.2-2.8 1.5-1.6 2.7-3 2.8-3.3 5.1-6.7 2.3-3.4 3.7-7z"/></svg>